<svg width="22" height="25" viewBox="0 0 22 25" fill="none" xmlns="http://www.w3.org/2000/svg">
<path d="M21.194 23.763H14.986V20.916C13.632 23.156 11.485 24.23 8.451 24.23C4.39 24.23 1.355 21.196 1.355 17.368C1.355 12.56 5.60299 10.038 12.045 10.038H14.985V9.525C14.985 7.471 13.212 5.743 10.598 5.743C8.124 5.743 5.697 7.098 4.436 8.685L0.841995 4.857C2.849 2.242 6.77 0.375 10.598 0.375C17.087 0.375 21.194 4.157 21.194 9.665V23.763ZM14.986 14.147H11.718C8.82399 14.147 7.097 15.034 7.097 16.761C7.097 18.161 8.217 19.095 9.991 19.095C12.885 19.095 14.986 17.135 14.986 14.847V14.147Z" fill="#FCFCFA"/>
</svg>
